<?xml version="1.0" encoding="UTF-8"?><svg id="a" xmlns="http://www.w3.org/2000/svg" viewBox="0 0 1280 640"><defs><style>.b{fill:#e4d695;}.c{fill:#80535e;}.d{fill:#d19ea9;}.e{fill:#608a86;}.f{fill:#4d4d4d;}.g{fill:none;stroke:#666;stroke-miterlimit:10;stroke-width:10px;}</style></defs><g><path class="f" d="M547.77,492.67c0-4.46-.14-8.07-.29-11.38h5.69l.29,5.98h.14c2.59-4.25,6.7-6.77,12.39-6.77,8.42,0,14.76,7.13,14.76,17.71,0,12.53-7.63,18.72-15.84,18.72-4.61,0-8.64-2.02-10.73-5.47h-.14v18.94h-6.26v-37.73Zm6.26,9.29c0,.94,.14,1.8,.29,2.59,1.15,4.39,4.97,7.42,9.5,7.42,6.7,0,10.58-5.47,10.58-13.46,0-6.98-3.67-12.96-10.37-12.96-4.32,0-8.35,3.1-9.58,7.85-.22,.79-.43,1.73-.43,2.59v5.98Z"/><path class="f" d="M590.54,481.29l7.63,20.59c.79,2.3,1.66,5.04,2.23,7.13h.14c.65-2.09,1.37-4.75,2.23-7.27l6.91-20.45h6.7l-9.5,24.84c-4.54,11.95-7.63,18.07-11.95,21.82-3.1,2.74-6.19,3.82-7.78,4.1l-1.58-5.33c1.58-.5,3.67-1.51,5.54-3.1,1.73-1.37,3.89-3.82,5.33-7.06,.29-.65,.5-1.15,.5-1.51s-.14-.86-.43-1.66l-12.89-32.11h6.91Z"/><path class="f" d="M641.15,516.14l-.5-4.39h-.22c-1.94,2.74-5.69,5.18-10.66,5.18-7.06,0-10.66-4.97-10.66-10.01,0-8.42,7.49-13.03,20.95-12.96v-.72c0-2.88-.79-8.06-7.92-8.06-3.24,0-6.62,1.01-9.07,2.59l-1.44-4.18c2.88-1.87,7.06-3.1,11.45-3.1,10.66,0,13.25,7.27,13.25,14.26v13.03c0,3.02,.14,5.98,.58,8.35h-5.76Zm-.94-17.79c-6.91-.14-14.76,1.08-14.76,7.85,0,4.1,2.74,6.05,5.98,6.05,4.54,0,7.42-2.88,8.42-5.83,.22-.65,.36-1.37,.36-2.02v-6.05Z"/><path class="f" d="M656.56,465.02h6.34v51.12h-6.34v-51.12Z"/><path class="f" d="M677.08,499.87c.14,8.57,5.62,12.1,11.95,12.1,4.54,0,7.27-.79,9.65-1.8l1.08,4.54c-2.23,1.01-6.05,2.16-11.59,2.16-10.73,0-17.14-7.06-17.14-17.57s6.19-18.79,16.34-18.79c11.38,0,14.4,10.01,14.4,16.42,0,1.3-.14,2.3-.22,2.95h-24.48Zm18.58-4.54c.07-4.03-1.66-10.3-8.79-10.3-6.41,0-9.22,5.9-9.72,10.3h18.51Z"/><path class="f" d="M712.36,481.29l4.97,7.49c1.3,1.94,2.38,3.74,3.53,5.69h.22c1.15-2.09,2.3-3.89,3.46-5.76l4.9-7.42h6.84l-11.88,16.85,12.24,18h-7.2l-5.11-7.85c-1.37-2.02-2.52-3.96-3.74-6.05h-.14c-1.15,2.09-2.38,3.96-3.67,6.05l-5.04,7.85h-6.98l12.38-17.79-11.81-17.07h7.06Z"/></g><g><g><polygon class="e" points="741.74 422.97 537.5 422.97 463.24 294.04 522.14 292.15 522.14 294.04 565.52 374.47 714.2 374.47 741.74 422.97"/><polygon class="d" points="741.74 422.97 714.2 374.47 763.03 294.04 718.25 210.9 719.24 208.79 741.74 161.34 816.75 294.04 741.74 422.97"/><polygon class="b" points="714.2 374.47 565.52 374.47 590.51 336.51 644.14 336.51 694.75 336.51 720.52 294.04 763.03 294.04 714.2 374.47"/><path class="d" d="M565.52,374.47l-43.38-80.43v-1.89l68.68-130.81,76.82,132.7-23.5,42.48h-53.64l-24.99,37.96Zm1.4-80.43l23.59,39.06,25.62-39.06-25.39-40.85-23.81,40.85Z"/><polygon class="c" points="590.51 333.1 566.92 294.04 590.73 253.19 616.13 294.04 590.51 333.1"/><polygon class="e" points="763.03 294.04 720.52 294.04 670.55 208.57 717.96 208.18 719.24 208.79 718.25 210.9 763.03 294.04"/><polygon class="b" points="522.14 292.15 463.24 294.04 590.82 161.34 522.14 292.15"/><polygon class="b" points="463.24 294.04 533.29 161.34 590.82 161.34 463.24 294.04"/><polygon class="b" points="741.74 161.34 719.24 208.79 717.96 208.18 670.55 208.57 692.44 161.34 741.74 161.34"/></g><g><polygon class="g" points="590.82 161.34 533.29 161.34 463.24 294.04 537.5 422.97 741.74 422.97 816.75 294.04 741.74 161.34 692.44 161.34 670.55 208.57 720.52 294.04 694.75 336.51 644.14 336.51 667.64 294.04 590.82 161.34"/><polyline class="g" points="590.82 161.34 522.14 292.15 463.24 294.04"/><polygon class="g" points="590.51 333.1 566.92 294.04 590.73 253.19 616.13 294.04 590.51 333.1"/><polyline class="g" points="522.14 294.04 565.52 374.47 714.2 374.47 763.03 294.04 718.25 210.9 719.24 208.79 741.74 161.34"/><line class="g" x1="717.96" y1="208.18" x2="670.55" y2="208.57"/><line class="g" x1="610.7" y1="294.04" x2="569.67" y2="294.04"/><polyline class="g" points="565.52 374.47 590.51 336.51 644.14 336.51"/><line class="g" x1="763.03" y1="294.04" x2="720.52" y2="294.04"/><line class="g" x1="741.74" y1="422.97" x2="714.2" y2="374.47"/></g></g></svg>